<mxfile host="app.diagrams.net" modified="2023-03-31T21:34:36.805Z" agent="Mozilla/5.0 (Windows NT 10.0; Win64; x64) AppleWebKit/537.36 (KHTML, like Gecko) Chrome/111.0.0.0 Safari/537.36" etag="FhmwSRUcLEunXyaERFGI" version="21.1.2" type="device">
  <diagram id="C5RBs43oDa-KdzZeNtuy" name="Page-1">
    <mxGraphModel dx="1816" dy="512" grid="1" gridSize="10" guides="1" tooltips="1" connect="1" arrows="1" fold="1" page="1" pageScale="1" pageWidth="827" pageHeight="1169" math="0" shadow="0">
      <root>
        <mxCell id="WIyWlLk6GJQsqaUBKTNV-0" />
        <mxCell id="WIyWlLk6GJQsqaUBKTNV-1" parent="WIyWlLk6GJQsqaUBKTNV-0" />
        <mxCell id="oHakrRu8Q4tq4R4-NKKh-14" style="edgeStyle=orthogonalEdgeStyle;rounded=0;orthogonalLoop=1;jettySize=auto;html=1;entryX=0.5;entryY=1;entryDx=0;entryDy=0;" edge="1" parent="WIyWlLk6GJQsqaUBKTNV-1" source="5xbvFpInqmZl458QrSCq-1" target="5xbvFpInqmZl458QrSCq-8">
          <mxGeometry relative="1" as="geometry">
            <mxPoint x="390" y="219.9999999999999" as="targetPoint" />
          </mxGeometry>
        </mxCell>
        <mxCell id="oHakrRu8Q4tq4R4-NKKh-15" style="edgeStyle=orthogonalEdgeStyle;rounded=0;orthogonalLoop=1;jettySize=auto;html=1;entryX=0.5;entryY=0;entryDx=0;entryDy=0;" edge="1" parent="WIyWlLk6GJQsqaUBKTNV-1" source="5xbvFpInqmZl458QrSCq-1" target="5xbvFpInqmZl458QrSCq-2">
          <mxGeometry relative="1" as="geometry" />
        </mxCell>
        <mxCell id="5xbvFpInqmZl458QrSCq-1" value="index.html" style="rounded=1;whiteSpace=wrap;html=1;" parent="WIyWlLk6GJQsqaUBKTNV-1" vertex="1">
          <mxGeometry x="120" y="200" width="120" height="40" as="geometry" />
        </mxCell>
        <mxCell id="oHakrRu8Q4tq4R4-NKKh-8" style="edgeStyle=orthogonalEdgeStyle;rounded=0;orthogonalLoop=1;jettySize=auto;html=1;" edge="1" parent="WIyWlLk6GJQsqaUBKTNV-1" source="5xbvFpInqmZl458QrSCq-2" target="5xbvFpInqmZl458QrSCq-8">
          <mxGeometry relative="1" as="geometry">
            <Array as="points">
              <mxPoint x="420" y="220" />
              <mxPoint x="420" y="220" />
            </Array>
          </mxGeometry>
        </mxCell>
        <mxCell id="oHakrRu8Q4tq4R4-NKKh-11" style="edgeStyle=orthogonalEdgeStyle;rounded=0;orthogonalLoop=1;jettySize=auto;html=1;" edge="1" parent="WIyWlLk6GJQsqaUBKTNV-1" source="5xbvFpInqmZl458QrSCq-2" target="oHakrRu8Q4tq4R4-NKKh-2">
          <mxGeometry relative="1" as="geometry" />
        </mxCell>
        <mxCell id="5xbvFpInqmZl458QrSCq-2" value="register.html" style="rounded=1;whiteSpace=wrap;html=1;" parent="WIyWlLk6GJQsqaUBKTNV-1" vertex="1">
          <mxGeometry x="320" y="310" width="130" height="40" as="geometry" />
        </mxCell>
        <mxCell id="5xbvFpInqmZl458QrSCq-4" value="" style="edgeStyle=orthogonalEdgeStyle;rounded=0;orthogonalLoop=1;jettySize=auto;html=1;" parent="WIyWlLk6GJQsqaUBKTNV-1" source="5xbvFpInqmZl458QrSCq-3" target="5xbvFpInqmZl458QrSCq-1" edge="1">
          <mxGeometry relative="1" as="geometry" />
        </mxCell>
        <mxCell id="5xbvFpInqmZl458QrSCq-3" value="Chattsida" style="rounded=0;whiteSpace=wrap;html=1;" parent="WIyWlLk6GJQsqaUBKTNV-1" vertex="1">
          <mxGeometry x="-90" y="190" width="120" height="60" as="geometry" />
        </mxCell>
        <mxCell id="oHakrRu8Q4tq4R4-NKKh-9" style="edgeStyle=orthogonalEdgeStyle;rounded=0;orthogonalLoop=1;jettySize=auto;html=1;" edge="1" parent="WIyWlLk6GJQsqaUBKTNV-1" source="5xbvFpInqmZl458QrSCq-8" target="5xbvFpInqmZl458QrSCq-2">
          <mxGeometry relative="1" as="geometry">
            <Array as="points">
              <mxPoint x="420" y="210" />
              <mxPoint x="420" y="210" />
            </Array>
          </mxGeometry>
        </mxCell>
        <mxCell id="oHakrRu8Q4tq4R4-NKKh-12" style="edgeStyle=orthogonalEdgeStyle;rounded=0;orthogonalLoop=1;jettySize=auto;html=1;entryX=0.5;entryY=0;entryDx=0;entryDy=0;" edge="1" parent="WIyWlLk6GJQsqaUBKTNV-1" source="5xbvFpInqmZl458QrSCq-8" target="5xbvFpInqmZl458QrSCq-1">
          <mxGeometry relative="1" as="geometry" />
        </mxCell>
        <mxCell id="5xbvFpInqmZl458QrSCq-8" value="login.html" style="rounded=1;whiteSpace=wrap;html=1;" parent="WIyWlLk6GJQsqaUBKTNV-1" vertex="1">
          <mxGeometry x="320" y="90" width="130" height="40" as="geometry" />
        </mxCell>
        <mxCell id="oHakrRu8Q4tq4R4-NKKh-13" style="edgeStyle=orthogonalEdgeStyle;rounded=0;orthogonalLoop=1;jettySize=auto;html=1;entryX=0.5;entryY=1;entryDx=0;entryDy=0;" edge="1" parent="WIyWlLk6GJQsqaUBKTNV-1" source="oHakrRu8Q4tq4R4-NKKh-2" target="5xbvFpInqmZl458QrSCq-1">
          <mxGeometry relative="1" as="geometry" />
        </mxCell>
        <mxCell id="oHakrRu8Q4tq4R4-NKKh-2" value="avatar.html" style="rounded=1;whiteSpace=wrap;html=1;" vertex="1" parent="WIyWlLk6GJQsqaUBKTNV-1">
          <mxGeometry x="120" y="310" width="120" height="40" as="geometry" />
        </mxCell>
      </root>
    </mxGraphModel>
  </diagram>
</mxfile>
